<svg
	xmlns="http://www.w3.org/2000/svg" width="78.001" height="73.132" viewBox="0 0 78.001 73.132">
	<defs>
		<style>.a{fill:#862633;}</style>
	</defs>
	<g transform="translate(-12.941 -30.211)">
		<path class="a" d="M70.6,73.132H7.4A7.381,7.381,0,0,1,.916,62.188L32.509,3.874a7.376,7.376,0,0,1,12.983,0L77.083,62.188h0a7.381,7.381,0,0,1-6.468,10.944Zm0-5.093a2.3,2.3,0,0,0,2-1.145h0a2.293,2.293,0,0,0,.076-2.309L41.055,6.238a2.341,2.341,0,0,0-4.11,0L5.326,64.586A2.341,2.341,0,0,0,7.4,68.039ZM36.474,56.75V53.383a2.526,2.526,0,0,1,5.052,0V56.75a2.526,2.526,0,0,1-5.052,0Zm0-11.786V24.76a2.526,2.526,0,1,1,5.052,0v20.2a2.526,2.526,0,0,1-5.052,0Z" transform="translate(12.941 30.211)"/>
	</g>
</svg>