<svg
  xmlns="http://www.w3.org/2000/svg"
  width="62.896"
  height="66.939"
  viewBox="0 0 62.896 66.939"
  fill="currentColor"
>
  <g transform="translate(1101.664 -648.262) rotate(120)">
    <path
      class="a"
      d="M1149.858,561a8,8,0,1,1-8-8,8,8,0,0,1,8,8"
      transform="translate(-14.143)"
    />
    <path
      class="a"
      d="M1176.144,577.713a6.858,6.858,0,1,1-6.858-6.858,6.857,6.857,0,0,1,6.858,6.858"
      transform="translate(-24.429 -6.428)"
    />
    <path
      class="a"
      d="M1181,608.713a5.714,5.714,0,1,1-5.715-5.713,5.714,5.714,0,0,1,5.715,5.713"
      transform="translate(-27.001 -18)"
    />
    <path
      class="a"
      d="M1164.43,636.143a4.572,4.572,0,1,1-4.573-4.572,4.571,4.571,0,0,1,4.573,4.572"
      transform="translate(-21.857 -28.286)"
    />
    <path
      class="a"
      d="M1132.286,643.285a4.572,4.572,0,1,1-4.573-4.57,4.573,4.573,0,0,1,4.573,4.57"
      transform="translate(-10.286 -30.857)"
    />
    <path
      class="a"
      d="M1105,624.286c0,4.57-6.858,4.57-6.858,0s6.858-4.572,6.858,0"
      transform="translate(-1.285 -24.429)"
    />
    <path
      class="a"
      d="M1099.14,594.569a2.285,2.285,0,1,1-4.57,0,2.285,2.285,0,1,1,4.57,0"
      transform="translate(0 -14.142)"
    />
    <path
      class="a"
      d="M1117,569.569a2.286,2.286,0,0,1-4.573,0,2.286,2.286,0,0,1,4.573,0"
      transform="translate(-6.428 -5.142)"
    />
  </g>
</svg>
