<svg
  width="120"
  height="40"
  viewBox="0 0 120 40"
  fill="none"
  xmlns="http://www.w3.org/2000/svg"
>
  <g clip-path="url(#clip0)">
    <path
      fill-rule="evenodd"
      clip-rule="evenodd"
      d="M48.3342 28.3953C47.4373 28.424 47.1241 27.5622 47.1241 25.6089V14.2624C47.1241 12.3091 47.4373 11.4473 48.3342 11.476V10.7866H41.3867V11.4904C42.2836 11.4617 42.5968 12.3234 42.5968 14.2768V25.6233C42.5968 27.5766 42.2836 28.4383 41.3867 28.4096V29.099H48.3342V28.3953Z"
      fill="#7C2D35"
    />
    <path
      fill-rule="evenodd"
      clip-rule="evenodd"
      d="M57.3307 12.826C59.4946 12.9984 60.7332 14.3341 61.4735 16.8045L61.9148 16.6896L60.9041 10.3413C60.5766 10.9302 59.4235 10.7866 58.9394 10.7866H51.0239C50.5541 10.7866 49.5433 10.9589 49.2871 10.3413L48.2051 16.6896L48.6749 16.8045C49.2016 14.2767 50.7534 12.8835 52.8177 12.826V25.4795C52.8177 27.476 52.5045 28.3664 51.0809 28.3952V29.0846H59.0818V28.3952C57.6439 28.3664 57.3449 27.476 57.3449 25.4795V12.826H57.3307Z"
      fill="#7C2D35"
    />
    <path
      fill-rule="evenodd"
      clip-rule="evenodd"
      d="M65.6008 22.0908C66.8394 22.0046 67.9214 22.4211 68.9322 23.3116C69.7864 24.0298 70.7829 25.4229 70.7829 26.7874C70.7829 27.7353 70.2704 28.3386 69.5728 28.396V29.0854H77.1751V28.396C76.0077 28.2237 75.6803 26.4283 75.3386 25.2506C73.8153 19.5773 71.8934 12.5396 71.8934 12.1806C71.8934 11.7066 72.0642 11.5343 72.4059 11.4912V10.8018H65.971V11.4912C66.2842 11.5486 66.455 11.7641 66.455 12.1806C66.455 12.5684 66.1845 13.3439 66.0849 13.6887L62.6254 25.2362C62.1983 26.5145 61.7427 28.08 60.5469 28.4104V29.0998H65.4015V28.4104C64.8036 28.3242 64.3907 28.0513 64.3907 27.1896C64.3907 26.572 64.6612 25.5235 64.8036 24.9346L65.6008 22.0908ZM69.3593 21.0854C68.4766 20.3098 67.3946 19.6922 66.2984 19.721L67.6936 14.493L69.3593 21.0854Z"
      fill="#7C2D35"
    />
    <path
      fill-rule="evenodd"
      clip-rule="evenodd"
      d="M89.4917 10.269C89.1785 10.743 88.5663 10.9441 88.125 10.9441C87.7975 10.9441 87.3277 10.8005 86.9718 10.7143C86.1603 10.5132 85.5339 10.3552 84.694 10.3552C83.2418 10.3552 81.7612 10.8005 80.5511 11.8633C79.3837 12.8974 78.5295 14.6784 78.5295 16.4737C78.5295 17.752 79.0421 19.0303 79.8251 19.8346C80.5084 20.524 81.5477 20.9979 82.3876 21.3426L84.6085 22.2618C85.5339 22.6209 86.7013 23.0374 86.7013 24.5742C86.7013 26.6281 85.0214 27.3319 83.6547 27.3319C81.0352 27.3319 78.9282 24.9189 78.5153 21.6873L78.0312 21.7735L78.5153 29.5293C78.8427 29.1128 79.1987 28.8543 79.7112 28.8543C80.124 28.8543 80.7504 29.0266 81.1633 29.1272C82.2595 29.3714 83.1279 29.5437 84.2526 29.5437C85.9041 29.5437 87.826 29.0697 89.2212 27.9064C90.6733 26.7143 91.556 25.0482 91.556 22.822C91.556 19.8202 89.9046 18.6425 87.8972 17.8669L85.3204 16.8902C84.5089 16.5599 83.1991 16.1721 83.1991 14.7789C83.1991 13.3283 84.4519 12.5814 85.4485 12.5814C87.2138 12.5814 88.9792 14.3624 89.5913 16.3875L90.0469 16.3014L89.4917 10.269Z"
      fill="#7C2D35"
    />
    <path
      d="M48.6044 7.52632L48.4336 7.55504C47.5509 7.7274 46.7252 7.88539 45.8283 7.88539C43.0379 7.88539 41.2441 6.36294 41.2441 3.9931C41.2441 1.62327 43.1091 0.0146484 45.8853 0.0146484C46.469 0.0146484 47.0384 0.0720991 47.6364 0.215726L47.7075 0.230088V1.69508H47.5509L47.5225 1.66635C47.0099 1.09185 46.0276 1.0344 45.629 1.0344C43.9064 1.0344 42.6963 2.19777 42.6963 3.86384C42.6963 5.55863 44.0487 6.90872 45.7571 6.90872C46.2554 6.90872 46.7537 6.83691 47.195 6.72201V5.17084C47.195 4.6107 47.1666 4.16546 46.7537 4.00747L46.6967 3.97874V3.77766H48.576L48.5617 3.95002C48.519 4.06492 48.519 4.23727 48.519 4.39526V7.00926C48.519 7.13853 48.519 7.29652 48.5617 7.41142L48.6044 7.52632Z"
      fill="#7C2D35"
    />
    <path
      d="M55.9076 7.71109H54.5551C53.9287 7.71109 53.5443 7.53874 53.2026 7.12222L51.8501 5.44179L50.7539 3.73264L50.8963 3.71827C51.5796 3.61773 52.7186 3.28739 52.7186 2.22456C52.7186 1.46334 52.0495 1.06118 51.4088 1.10427C51.1953 1.11863 50.9959 1.13299 50.7397 1.17608V6.21737C50.7397 6.72007 50.7254 7.35202 51.1668 7.49565L51.238 7.52438V7.72545H48.9316V7.52438L49.0028 7.49565C49.4299 7.33766 49.4299 6.70571 49.4299 6.23174C49.4299 6.17429 49.4157 6.1312 49.4157 6.05939V1.85113C49.4157 1.79368 49.4299 1.73623 49.4299 1.67877C49.4299 1.19044 49.4442 0.57285 49.0028 0.400498L48.9316 0.386136V0.185059H51.6651C53.1172 0.185059 54.0426 0.931917 54.0426 2.08093C54.0426 3.08632 53.2169 3.83317 52.3627 4.0917L53.8575 5.98757C54.2846 6.51899 54.9395 7.07913 55.6228 7.52438L55.9076 7.71109Z"
      fill="#7C2D35"
    />
    <path
      d="M67.8513 2.23892C67.8513 3.60337 66.5558 4.42204 65.3314 4.42204C64.9897 4.42204 64.7193 4.37895 64.4772 4.24969L64.5199 4.06297C65.4596 4.00552 66.3992 3.43102 66.3992 2.45436C66.3992 1.34843 65.4738 1.17608 64.9328 1.17608C64.705 1.17608 64.4772 1.19044 64.2637 1.21917V6.18865C64.2637 6.77751 64.2637 7.16531 64.7904 7.46692L64.8331 7.49565V7.69672H62.4414V7.49565L62.5126 7.46692C62.9539 7.30893 62.9397 6.66261 62.9397 6.18865V1.7075C62.9397 1.23353 62.9539 0.57285 62.5126 0.400498L62.4414 0.386136V0.185059H65.2175C66.8263 0.185059 67.8513 0.989367 67.8513 2.23892Z"
      fill="#7C2D35"
    />
    <path
      d="M61.2455 6.18865C61.2455 6.66262 61.2313 7.30894 61.6726 7.46693L61.7438 7.49565V7.69673H59.9215V7.12222C59.3663 7.668 58.5263 7.86908 57.8572 7.86908C57.003 7.86908 56.2627 7.56747 55.7929 7.05041C55.2092 6.40409 55.2092 5.65723 55.2092 4.88165V1.67878C55.2235 1.17608 55.2235 0.57285 54.7821 0.400498L54.7109 0.386136V0.185059H57.003V0.386136L56.9461 0.400498C56.519 0.57285 56.519 1.21917 56.5332 1.67878V4.79547C56.5332 6.18865 57.0742 6.8637 58.1847 6.8637C58.8253 6.8637 59.3948 6.59081 59.7222 6.1312C59.9358 5.84395 59.9358 5.59978 59.9358 5.22635L59.95 1.67878C59.95 1.21917 59.9642 0.57285 59.5229 0.400498L59.4517 0.386136V0.185059H61.7153L61.7865 0.386136L61.6869 0.414861C61.2455 0.587213 61.2598 1.2479 61.2598 1.72186V6.18865H61.2455Z"
      fill="#7C2D35"
    />
    <path
      fill-rule="evenodd"
      clip-rule="evenodd"
      d="M73.574 2.23941C73.574 3.60386 72.2927 4.42253 71.0541 4.42253C70.7124 4.42253 70.4419 4.37944 70.1999 4.25018L70.2426 4.06346C71.1822 4.00601 72.1361 3.43151 72.1361 2.45485C72.1361 1.34892 71.2107 1.17657 70.6555 1.17657C70.4277 1.17657 70.1999 1.19093 69.9863 1.21966V6.18913C69.9863 6.778 69.9863 7.16579 70.5131 7.46741L70.5558 7.49614V7.69721H68.1641V7.49614L68.221 7.46741C68.6766 7.30942 68.6623 6.6631 68.6481 6.18913V1.70799C68.6623 1.23402 68.6623 0.573338 68.221 0.400987L68.1641 0.386624V0.185547H70.9402C72.5205 0.185547 73.574 1.00422 73.574 2.23941Z"
      fill="#7C2D35"
    />
    <path
      fill-rule="evenodd"
      clip-rule="evenodd"
      d="M77.9021 0H77.8024C75.5246 0 73.6738 1.76661 73.6738 3.92101C73.6738 6.17594 75.4534 7.8851 77.8024 7.8851C80.1372 7.8851 81.9595 6.11849 81.9595 3.86355C81.9453 1.69479 80.1799 0 77.9021 0ZM77.8451 6.87971C76.1652 6.87971 75.1117 5.29982 75.1117 3.82047C75.1117 2.12567 76.1937 1.00539 77.8167 1.00539C79.5535 1.00539 80.4789 2.59964 80.4789 4.09336C80.4931 5.7307 79.4112 6.87971 77.8451 6.87971Z"
      fill="#7C2D35"
    />
    <path
      fill-rule="evenodd"
      clip-rule="evenodd"
      d="M49.0738 39.3968C48.5185 39.1096 48.3192 38.5925 48.1057 38.0324L45.7282 32.1006H43.8205V32.3017L43.8917 32.316C44.0198 32.3591 44.1052 32.4166 44.1337 32.5027C44.2191 32.6751 44.1195 32.9336 44.0198 33.1778L42.1406 37.86L42.0836 38.018C41.8701 38.5781 41.6708 39.1096 41.1155 39.3824L41.0586 39.4112V39.5979H43.2795V39.3968L43.2083 39.3681C42.9378 39.2675 42.8951 39.1383 42.8809 39.0377C42.8666 38.8654 42.9521 38.6356 43.0517 38.3483L43.6069 36.8546H46.2407L46.8671 38.492C47.1234 39.1383 47.1234 39.1814 46.7105 39.3824L46.6536 39.3968V39.5979H49.1165V39.4112L49.0738 39.3968ZM45.8563 35.8492H43.9628L44.9167 33.4219L45.8563 35.8492Z"
      fill="#7C2D35"
    />
    <path
      d="M69.9723 37.9612H70.1859L69.5453 39.4262L69.5025 39.4406C69.0185 39.6704 68.449 39.7853 67.7942 39.7853C65.1319 39.7853 63.4805 38.2629 63.4805 35.8356C63.4805 33.5232 65.1034 31.9146 67.4525 31.9146C68.0362 31.9146 68.6911 32.0007 69.4741 32.2018L69.5453 32.2162V33.753L69.4029 33.6524C68.7622 33.2503 68.0789 33.0348 67.4098 33.0348C65.9576 33.0348 64.9326 34.1264 64.9326 35.6776C64.9326 37.1282 65.8722 38.665 67.6376 38.665C68.5487 38.665 69.3886 38.2916 69.9439 37.9756L69.9723 37.9612Z"
      fill="#7C2D35"
    />
    <path
      d="M77.1062 39.3815L77.1632 39.4102V39.6113H75.3551V39.0511C74.7999 39.5969 73.9457 39.798 73.2908 39.798C72.4366 39.798 71.6963 39.4964 71.2123 38.9793C70.6286 38.333 70.6286 37.5861 70.6286 36.8106V33.579C70.6428 33.0906 70.6428 32.4874 70.2015 32.315L70.1445 32.3007V32.0996H72.4224V32.3007L72.3654 32.315C71.9383 32.4874 71.9383 33.1337 71.9383 33.5933V36.71C71.9383 38.1032 72.4793 38.7782 73.5898 38.7782C74.2304 38.7782 74.7999 38.5054 75.1274 38.0458C75.3409 37.7585 75.3409 37.5143 75.3409 37.1409V33.5933C75.3551 33.1337 75.3551 32.473 74.9138 32.315L74.8426 32.3007V32.0996H77.1062L77.1774 32.3007L77.092 32.3294C76.6364 32.5018 76.6507 33.1194 76.6649 33.6221V38.1176C76.6649 38.5772 76.6649 39.2235 77.1062 39.3815Z"
      fill="#7C2D35"
    />
    <path
      d="M60.2341 37.3867C60.2341 38.7081 58.8532 39.7853 57.1733 39.7853C56.4472 39.7853 55.7639 39.6704 55.1659 39.4406L55.1232 39.4262L54.7246 37.6884L54.9524 37.8894C55.593 38.4496 56.4899 38.7799 57.3014 38.7799C57.9278 38.7799 58.782 38.4065 58.782 37.7171C58.782 36.9846 58.0275 36.6542 57.159 36.2521C56.134 35.7925 54.9809 35.2754 54.9809 33.9397C54.9809 32.446 56.5184 31.9146 57.8566 31.9146C58.4403 31.9146 59.0098 32.0007 59.5223 32.1731L59.5935 32.1874V33.753L59.4226 33.5806C59.024 33.1785 58.3691 32.9056 57.757 32.9056C57.1448 32.9056 56.433 33.1354 56.433 33.8248C56.433 34.4711 57.216 34.8302 58.0559 35.218C59.081 35.6919 60.2341 36.209 60.2341 37.3867Z"
      fill="#7C2D35"
    />
    <path
      d="M60.8203 32.0874H63.1124V32.2885L63.0412 32.3028C62.6141 32.4752 62.6141 33.1359 62.6141 33.6098V38.091C62.6141 38.5649 62.5999 39.2113 63.0412 39.3692L63.1124 39.398V39.599H60.8203V39.398L60.8915 39.3692C61.3186 39.2113 61.3186 38.5649 61.3186 38.091L61.3044 37.9473V33.7535C61.3044 33.696 61.3044 33.6386 61.3186 33.5811C61.3186 33.0784 61.3328 32.4752 60.8915 32.3028L60.8203 32.2885V32.0874Z"
      fill="#7C2D35"
    />
    <path
      d="M54.4978 37.3867C54.4978 38.7081 53.1311 39.7853 51.437 39.7853C50.7109 39.7853 50.0418 39.6704 49.4296 39.4406L49.3869 39.4262L48.9883 37.6884L49.2161 37.8894C49.8567 38.4496 50.7394 38.7799 51.5651 38.7799C52.1773 38.7799 53.0457 38.4065 53.0457 37.7171C53.0457 36.9846 52.2912 36.6542 51.4227 36.2521C50.3977 35.7925 49.2588 35.2754 49.2588 33.9397C49.2588 32.446 50.7963 31.9146 52.1203 31.9146C52.704 31.9146 53.2735 32.0007 53.786 32.1731L53.8572 32.1874V33.753L53.6864 33.5806C53.2877 33.1785 52.6471 32.9056 52.0349 32.9056C51.8071 32.9056 50.7109 32.9487 50.7109 33.8248C50.7109 34.4711 51.4939 34.8302 52.3339 35.218C53.3589 35.6919 54.4978 36.209 54.4978 37.3867Z"
      fill="#7C2D35"
    />
    <path
      d="M100.098 38.1042C100.098 38.5781 100.084 39.2245 100.526 39.3825L100.597 39.4112V39.6123H98.3047V39.4112L98.3759 39.3825C98.803 39.2245 98.803 38.5781 98.803 38.1042L98.7887 37.9606V33.7667C98.7887 33.7092 98.803 33.6518 98.803 33.5943C98.803 33.106 98.8172 32.4884 98.3759 32.316L98.3047 32.3017V32.1006H100.597V32.3017L100.526 32.316C100.098 32.4884 100.098 33.1491 100.098 33.623V38.1042Z"
      fill="#7C2D35"
    />
    <path
      d="M97.835 38.0036L97.8065 38.018C97.0662 38.4776 96.3971 38.6643 95.6853 38.6212L93.5355 38.492L97.5075 32.1006H92.3966L91.756 33.5799H91.9695L91.998 33.5656C92.6102 33.1634 92.9661 33.0629 93.5925 33.106L95.3151 33.2065L91.4428 39.4255L91.4143 39.4112C90.8733 39.1239 90.6598 38.6069 90.4462 38.0467L88.0687 32.1149H86.1325V32.316L86.2037 32.3304C86.3318 32.3735 86.4173 32.4309 86.46 32.5171C86.5311 32.6895 86.4315 32.948 86.3318 33.1921L84.4668 37.8887L84.4099 38.0467C84.2818 38.4202 84.1394 38.7649 83.9116 39.0377C83.4418 38.693 83.0289 38.2909 82.73 37.9175L81.2351 36.0216C82.0893 35.7631 82.9151 35.0162 82.9151 34.0108C82.9151 32.8618 81.9754 32.1149 80.5376 32.1149H77.8184V32.316L77.8753 32.3304C78.3166 32.5027 78.3024 33.106 78.3024 33.6087V38.1329C78.3166 38.5925 78.3166 39.2388 77.8895 39.3968L77.8184 39.4255V39.6266H80.1247V39.4255L80.0535 39.3968C79.6122 39.2388 79.6122 38.6212 79.6264 38.1185V33.0772C79.8827 33.0342 80.082 33.0054 80.2813 33.0054C80.9219 32.9767 81.6053 33.3789 81.6053 34.1401C81.6053 35.2029 80.4664 35.5333 79.783 35.6338L79.6264 35.6482L80.7226 37.343L82.0609 39.009C82.4025 39.4255 82.7585 39.5979 83.3849 39.5979H85.6058V39.3968L85.5488 39.3681C85.1217 39.2101 85.136 39.0234 85.378 38.3483L85.9332 36.8546H88.567L89.1934 38.492C89.4496 39.167 89.4496 39.1957 89.0368 39.3825L88.9798 39.3968V39.5979H97.3367L98.0343 37.9893H97.835V38.0036ZM86.3034 35.8492L87.2572 33.4219L88.1968 35.8492H86.3034Z"
      fill="#7C2D35"
    />
    <path
      d="M105.237 31.9125C102.902 31.855 100.994 33.636 100.994 35.8335C100.994 38.0884 102.774 39.7832 105.123 39.7832C107.458 39.7832 109.28 38.0166 109.28 35.7617C109.294 33.6073 107.514 31.9125 105.237 31.9125ZM105.18 38.7922C103.5 38.7922 102.446 37.2123 102.446 35.733C102.446 34.0382 103.528 32.9035 105.151 32.9035C106.888 32.9035 107.813 34.4978 107.813 36.0058C107.828 37.6432 106.746 38.7922 105.18 38.7922Z"
      fill="#7C2D35"
    />
    <path
      d="M119.503 38.1037C119.489 38.5777 119.489 39.224 119.93 39.382L120.001 39.4107V39.6118H117.709V39.4107L117.78 39.382C118.207 39.224 118.207 38.5777 118.193 38.1037V33.5938C118.207 33.1055 118.207 32.4879 117.766 32.3155L117.709 32.3012V32.1001H120.001V32.3012L119.93 32.3155C119.503 32.4879 119.503 33.1486 119.503 33.6225V38.1037Z"
      fill="#7C2D35"
    />
    <path
      d="M115.117 32.0854H117.252V32.2865L117.21 32.3153C116.683 32.6169 116.683 33.019 116.683 33.6223V39.9993L116.555 39.9562C115.729 39.6689 115.373 39.2811 114.903 38.6492L111.287 34.0388V38.089C111.287 38.6779 111.287 39.0657 111.814 39.3817L111.857 39.4104V39.5971H109.707V39.4104L109.75 39.3817C110.291 39.0657 110.291 38.6635 110.291 38.0603V33.6223C110.291 33.0047 110.291 32.6169 109.764 32.3153L109.721 32.2865V32.0854H111.529V32.186C111.558 32.2865 111.6 32.3296 111.657 32.4158L111.828 32.6456L115.686 37.572V33.6079C115.701 33.019 115.701 32.6169 115.16 32.3296L115.117 32.3009V32.0854Z"
      fill="#7C2D35"
    />
    <path
      d="M6.91853 3.24702C6.91853 3.95079 6.30636 4.53966 5.56606 4.53966H2.88958C2.13504 4.53966 1.53711 3.95079 1.53711 3.24702C1.53711 2.54325 2.09234 1.96874 2.83264 1.94002L2.84687 1.33679C2.84687 0.618654 3.45905 0.0297852 4.21358 0.0297852C4.96812 0.0297852 5.56606 0.618654 5.56606 1.33679L5.60877 1.95438C6.33483 1.96874 6.91853 2.54325 6.91853 3.24702Z"
      fill="#7C2D35"
    />
    <path
      d="M32.7877 3.24625C32.7877 3.95002 32.1755 4.53889 31.421 4.53889H28.7587C28.0042 4.53889 27.4062 3.95002 27.4062 3.24625C27.4062 2.54248 27.99 1.96797 28.7018 1.93924L28.716 1.32165C28.716 0.603517 29.3282 0.0146484 30.0685 0.0146484C30.823 0.0146484 31.421 0.603517 31.421 1.32165L31.4779 1.93924C32.2182 1.96797 32.7877 2.54248 32.7877 3.24625Z"
      fill="#7C2D35"
    />
    <path
      d="M13.1977 7.02226C13.1977 7.33824 13.0696 7.63986 12.856 7.82657L12.6282 8.05637C11.9164 8.53034 11.2188 8.76014 10.5497 8.76014C9.32534 8.76014 8.64199 7.98456 8.61351 7.94147C8.37149 7.71167 8.11523 7.43878 8.11523 7.0079C8.11523 6.3903 8.65622 5.87325 9.31111 5.87325C9.69549 5.87325 10.0372 6.0456 10.2792 6.33285L10.2934 6.36158C10.2934 6.36158 10.3361 6.49084 10.6066 6.49084C10.7063 6.49084 10.8344 6.47648 10.991 6.41903L11.0053 6.37594C11.233 6.0456 11.589 5.85889 12.0018 5.85889C12.6709 5.88761 13.1977 6.39031 13.1977 7.02226Z"
      fill="#7C2D35"
    />
    <path
      d="M33.4132 8.37366C33.4132 6.72196 32.0038 5.38623 30.2812 5.38623C28.9856 5.38623 27.8182 6.14745 27.3484 7.29646L25.0706 12.9554C25.0706 12.9554 24.9282 13.4293 24.5723 13.5442H20.5718L20.5576 12.4527C20.5576 10.8297 19.2194 9.69503 17.2974 9.69503H17.2405C15.3043 9.69503 13.9518 10.8297 13.9518 12.4527L13.9661 13.5442H9.97983C9.62392 13.4293 9.48155 12.9554 9.48155 12.941L7.2037 7.29646H7.18947C6.71966 6.14745 5.5665 5.38623 4.27097 5.38623C2.53411 5.38623 1.12469 6.72196 1.12469 8.3593L0 27.9356C0 28.5676 0.526753 29.0703 1.19587 29.0703C1.85075 29.0703 2.39174 28.5676 2.39174 27.9356L2.56258 20.8979L2.54835 20.7974C2.54835 20.5388 2.77613 20.3234 3.06086 20.3234C3.33136 20.3234 3.55914 20.5388 3.55914 20.8117L3.58761 20.9697L3.48796 26.7004C3.48796 27.318 4.02895 27.8351 4.68383 27.8351C5.35295 27.8351 5.89394 27.3324 5.89394 26.7004L6.0363 20.8117C6.0363 20.5532 6.26409 20.3378 6.53458 20.3378C6.81931 20.3378 7.03286 20.5532 7.03286 20.8117L6.93321 25.5658C6.93321 26.1834 7.4742 26.7004 8.14332 26.7004C8.81243 26.7004 9.33919 26.1977 9.33919 25.5658L9.3819 20.7974C9.3819 20.5388 9.60968 20.3234 9.88018 20.3234C10.1649 20.3234 10.3785 20.5388 10.3785 20.7974V24.3449C10.3785 24.9769 10.9052 25.4652 11.5886 25.4652C12.2434 25.4652 12.7702 24.9769 12.7702 24.3449L12.8271 20.7974C12.8271 20.5245 13.0407 20.3234 13.3254 20.3234C13.5817 20.3234 13.8095 20.7974 13.8095 21.099L13.9803 23.713C13.9803 25.3503 15.3613 26.5281 17.269 26.5281H17.3259C19.2194 26.5281 20.5861 25.336 20.5861 23.713L20.7569 21.0846C20.7569 20.7974 21.0132 20.3234 21.2694 20.3234C21.5399 20.3234 21.7677 20.5388 21.7677 20.7974L21.7962 24.3449C21.7962 24.9625 22.3372 25.4652 23.0063 25.4652C23.6612 25.4652 24.2022 24.9625 24.2022 24.3449V20.7974C24.2022 20.5388 24.4299 20.3234 24.7004 20.3234C24.9852 20.3234 25.1987 20.5388 25.1987 20.7974L25.2414 25.5658C25.2414 26.1834 25.7824 26.7004 26.4515 26.7004C27.1064 26.7004 27.6474 26.1977 27.6474 25.5658L27.5762 20.7974C27.5762 20.5245 27.804 20.3234 28.0745 20.3234C28.3592 20.3234 28.5728 20.5388 28.5728 20.7974L28.7294 26.6861C28.7294 27.3036 29.2561 27.8207 29.9253 27.8207C30.5944 27.8207 31.1211 27.318 31.1211 26.6861L31.0215 20.9841L31.0642 20.7974C31.0642 20.5245 31.2777 20.3234 31.5625 20.3234C31.8472 20.3234 32.0607 20.5388 32.0607 20.783L32.0465 20.9123L32.2173 27.9356C32.2173 28.5676 32.7583 29.0703 33.4275 29.0703C34.0823 29.0703 34.6233 28.5676 34.6233 27.9212L33.4132 8.37366ZM12.7275 17.8099H7.03286C6.53458 17.8099 5.97936 17.2354 5.90817 17.1636L4.21402 12.7112L3.95776 12.8404C3.85811 12.8692 3.75845 12.8835 3.67303 12.8835C3.27441 12.8835 2.94697 12.6394 2.8046 12.2659C2.73342 12.0361 2.74766 11.8063 2.84731 11.6053C2.96121 11.3755 3.16052 11.2175 3.41678 11.1457L3.47372 11.1313L3.30288 10.5711C3.2317 10.3413 3.24594 10.1115 3.34559 9.91047C3.45949 9.68067 3.6588 9.52268 3.90082 9.45086C4.00047 9.42214 4.10013 9.40777 4.18555 9.40777C4.59841 9.40777 4.96856 9.6663 5.09669 10.0397L5.33871 10.5855L5.38142 10.5711C5.48108 10.5424 5.58073 10.5281 5.66615 10.5281C6.06478 10.5281 6.44916 10.7866 6.57729 11.1457C6.64848 11.3611 6.63424 11.5909 6.53458 11.8063C6.42069 12.0361 6.22138 12.1941 5.96512 12.2659L5.76581 12.3378L7.21794 16.0577C7.23217 16.0864 7.30336 16.3449 7.944 16.3449H7.97248L8.17179 16.3593H12.7275C13.1261 16.3593 13.482 16.704 13.482 17.1062C13.482 17.5083 13.1403 17.8099 12.7275 17.8099ZM21.8389 16.3449H26.4088L26.5797 16.3306H26.6366C27.2773 16.3306 27.3484 16.072 27.3627 16.0433L28.8148 12.309L28.6155 12.2372C28.3592 12.1654 28.1599 11.9931 28.046 11.7776C27.9464 11.5622 27.9321 11.3324 28.0033 11.1169C28.1315 10.7435 28.5016 10.4993 28.9145 10.4993C29.0141 10.4993 29.1138 10.5137 29.1992 10.5424L29.2561 10.5568L29.4839 10.011C29.6121 9.63758 29.9822 9.37905 30.3951 9.37905C30.4947 9.37905 30.5944 9.39341 30.6798 9.42214C30.9218 9.49395 31.1211 9.6663 31.235 9.88174C31.3347 10.0828 31.3632 10.3126 31.2777 10.5424L31.1069 11.1026L31.1638 11.1169C31.4201 11.1887 31.6194 11.3611 31.7333 11.5765C31.833 11.7776 31.8472 12.0074 31.776 12.2372C31.6479 12.6106 31.3062 12.8548 30.9076 12.8548C30.8079 12.8548 30.7083 12.8404 30.6229 12.8117L30.3524 12.6825L28.6582 17.1349C28.587 17.2067 28.0176 17.7812 27.5335 17.7812H21.8389C21.426 17.7812 21.0844 17.4652 21.0844 17.0631C21.0986 16.6896 21.4403 16.3449 21.8389 16.3449Z"
      fill="#7C2D35"
    />
    <path
      d="M14.692 27.1456C14.8628 27.5621 14.8343 28.0217 14.6493 28.4239L11.9728 34.1258L11.9159 34.1115L8.66992 32.7183L8.69839 32.6609L11.3322 27.0307C11.6311 26.3987 12.286 25.9966 12.9978 25.9966C13.2399 25.9966 13.4961 26.0397 13.7097 26.1402C14.1795 26.3413 14.5211 26.7004 14.692 27.1456Z"
      fill="#7C2D35"
    />
    <path
      d="M19.0765 34.3126V35.677H15.4746V34.3126C15.4746 33.3646 16.2861 32.5891 17.2827 32.5891C18.265 32.5747 19.0765 33.3503 19.0765 34.3126Z"
      fill="#7C2D35"
    />
    <path
      d="M25.91 32.7186L22.6214 34.1261L22.5929 34.0687L19.9307 28.4242C19.7314 28.022 19.7314 27.5624 19.888 27.1459C20.0588 26.7006 20.4147 26.3559 20.8561 26.1549C21.0839 26.0543 21.3259 26.0112 21.5821 26.0112C22.294 26.0112 22.9488 26.4134 23.2478 27.0453L25.91 32.7186Z"
      fill="#7C2D35"
    />
    <path
      d="M28.7711 36.9273C28.643 37.2576 28.3867 37.5161 28.045 37.6597L27.8315 37.7459L28.0023 38.105C28.1447 38.421 28.1732 38.7657 28.045 39.0816C27.9169 39.412 27.6464 39.6849 27.319 39.8141C27.1339 39.886 26.9488 39.9147 26.7637 39.9147C26.2228 39.9147 25.7387 39.6274 25.5252 39.1678L25.3543 38.7944L25.2262 38.8518C25.0411 38.9237 24.856 38.9667 24.671 38.9667C24.13 38.9667 23.6459 38.6651 23.4182 38.2055C23.29 37.9039 23.2615 37.5592 23.3897 37.2576C23.5178 36.9273 23.7741 36.64 24.1157 36.4964L24.2581 36.4389L23.9591 35.7926C23.8168 35.491 23.7883 35.1606 23.9164 34.8447C24.0446 34.5143 24.3151 34.2414 24.6425 34.0978C24.8133 34.026 24.9984 33.9829 25.1977 33.9829C25.7245 33.9829 26.2228 34.2845 26.4363 34.7585L26.7495 35.3904L26.9773 35.3186C27.1481 35.2468 27.3332 35.2037 27.5325 35.2037C28.0735 35.2037 28.5576 35.5053 28.7711 35.965C28.885 36.2522 28.8992 36.6113 28.7711 36.9273Z"
      fill="#7C2D35"
    />
    <path
      d="M18.6497 37.6883V38.5931C18.6497 39.3256 18.0233 39.9288 17.2546 39.9288C16.4858 39.9288 15.8594 39.34 15.8594 38.5931V37.6883C15.8594 36.9558 16.4858 36.3525 17.2546 36.3525C18.0233 36.3669 18.6497 36.9558 18.6497 37.6883Z"
      fill="#7C2D35"
    />
    <path
      d="M11.2034 37.2565C11.3173 37.5725 11.3031 37.9029 11.1607 38.2045C10.933 38.6641 10.4631 38.9657 9.92215 38.9657C9.72284 38.9657 9.53777 38.9226 9.36693 38.8508L9.2388 38.7933L9.06796 39.1668C8.84018 39.6264 8.35613 39.9136 7.82938 39.9136C7.63007 39.9136 7.44499 39.8849 7.27415 39.8131C6.93247 39.6838 6.67622 39.4109 6.54809 39.0806C6.41996 38.7646 6.43419 38.4199 6.57656 38.1039L6.7474 37.7449L6.54809 37.6587C6.20641 37.5151 5.95015 37.2565 5.82202 36.9118C5.70813 36.5959 5.72237 36.2511 5.86473 35.9352C6.09252 35.4756 6.57656 35.174 7.10331 35.174C7.30263 35.174 7.4877 35.217 7.65854 35.2889L7.88633 35.3607L8.18529 34.7143C8.41308 34.2547 8.88288 33.9531 9.42387 33.9531C9.60895 33.9531 9.79403 33.9962 9.96486 34.068C10.3065 34.2117 10.577 34.4702 10.6909 34.8149C10.8048 35.1309 10.7906 35.4612 10.6482 35.7628L10.3493 36.4091L10.4774 36.4666C10.8048 36.6389 11.0753 36.9262 11.2034 37.2565Z"
      fill="#7C2D35"
    />
    <path
      d="M19.2745 29.3009V31.7856H15.2598V29.3009C15.2598 28.2524 16.1709 27.3906 17.2671 27.3906C18.3776 27.3906 19.2745 28.2524 19.2745 29.3009Z"
      fill="#7C2D35"
    />
    <path
      d="M21.3409 1.22151C21.3267 1.22151 21.3267 1.22151 21.3409 1.22151L21.0989 1.16406H15.5324C14.123 1.16406 13.8952 2.67214 13.8525 2.98812H12.2722C11.7455 2.98812 11.3326 3.11738 11.0906 3.39027C10.8059 3.70625 10.8201 4.07968 10.8343 4.09404V5.11379H13.9379V8.76191H20.5437V6.60751C20.5437 6.5357 20.444 4.94144 19.7179 4.13713C19.661 4.00787 19.5613 3.67753 19.661 3.51954C19.7037 3.47645 19.7607 3.44772 19.8603 3.44772C19.8746 3.44772 19.903 3.44773 19.9457 3.46209L21.3124 3.419C21.9246 3.419 22.4229 2.65778 22.4229 2.35616C22.4229 1.76729 21.8961 1.22151 21.3409 1.22151ZM15.3189 3.24665C15.3189 2.81577 15.6605 2.48543 16.0734 2.48543C16.5005 2.48543 16.8279 2.83013 16.8279 3.24665C16.8279 3.66316 16.4863 4.00787 16.0734 4.00787C15.6748 4.02223 15.3189 3.66316 15.3189 3.24665Z"
      fill="#7C2D35"
    />
  </g>
  <defs>
    <clipPath id="clip0">
      <rect width="120" height="40" fill="white" />
    </clipPath>
  </defs>
</svg>
