<svg
  xmlns="http://www.w3.org/2000/svg"
  width="18"
  height="18.081"
  viewBox="0 0 18 18.081"
>
  <g transform="translate(0 -2.043)">
    <g transform="translate(0 1.043)">
      <path
        d="M15.5,38.184a1.888,1.888,0,0,0-1.369-.628,1.952,1.952,0,0,0-1.385.624l-1.28,1.276c-.105-.057-.211-.109-.312-.162-.146-.073-.284-.142-.4-.215a13.911,13.911,0,0,1-3.333-3.038,8.207,8.207,0,0,1-1.094-1.725c.332-.3.64-.62.94-.923.113-.113.227-.231.34-.344a1.858,1.858,0,0,0,0-2.8L6.5,29.14c-.126-.126-.255-.255-.377-.385-.243-.251-.5-.51-.761-.753A1.917,1.917,0,0,0,4,27.406a1.984,1.984,0,0,0-1.377.6l-.008.008L1.24,29.4a2.963,2.963,0,0,0-.879,1.883A7.1,7.1,0,0,0,.88,34.287a17.439,17.439,0,0,0,3.1,5.168,19.06,19.06,0,0,0,6.347,4.97,9.889,9.889,0,0,0,3.564,1.053c.085,0,.174.008.255.008a3.052,3.052,0,0,0,2.337-1c0-.008.012-.012.016-.02a9.208,9.208,0,0,1,.709-.733c.174-.166.352-.34.527-.522a2.021,2.021,0,0,0,.612-1.4,1.947,1.947,0,0,0-.624-1.389Zm1.45,4.265s0,0,0,0c-.158.17-.32.324-.494.494a10.652,10.652,0,0,0-.782.81,1.953,1.953,0,0,1-1.523.644c-.061,0-.126,0-.186,0a8.785,8.785,0,0,1-3.159-.948,17.992,17.992,0,0,1-5.978-4.682,16.443,16.443,0,0,1-2.916-4.856,5.783,5.783,0,0,1-.454-2.535,1.859,1.859,0,0,1,.559-1.2l1.381-1.381A.921.921,0,0,1,4.01,28.5a.866.866,0,0,1,.591.284l.012.012c.247.231.482.47.729.725.126.13.255.259.385.393l1.106,1.106a.773.773,0,0,1,0,1.256c-.117.117-.231.235-.348.348-.34.348-.664.672-1.017.988-.008.008-.016.012-.02.02a.826.826,0,0,0-.211.919l.012.036a8.877,8.877,0,0,0,1.308,2.135l0,0A14.866,14.866,0,0,0,10.159,40a5.53,5.53,0,0,0,.5.271c.146.073.284.142.4.215.016.008.032.02.049.028a.878.878,0,0,0,.4.1.866.866,0,0,0,.616-.279l1.385-1.385a.916.916,0,0,1,.612-.3.825.825,0,0,1,.583.3l.008.008,2.232,2.232A.8.8,0,0,1,16.947,42.449Z"
        transform="translate(-0.344 -26.406)"
      />
    </g>
  </g>
</svg>
