<svg
  width="48"
  height="48"
  viewBox="0 0 48 48"
  fill="none"
  xmlns="http://www.w3.org/2000/svg"
>
  <path
    d="M23.0215 0.548877C23.6293 0.207947 24.3707 0.207947 24.9785 0.548877L29.1462 2.88677C29.4377 3.05031 29.7656 3.13817 30.0999 3.14231L34.8782 3.2015C35.575 3.21013 36.2171 3.58083 36.5729 4.17997L39.0133 8.2885C39.1841 8.57591 39.4241 8.81594 39.7115 8.98666L43.82 11.4271C44.4192 11.7829 44.7899 12.425 44.7985 13.1218L44.8577 17.9001C44.8618 18.2344 44.9497 18.5623 45.1132 18.8538L47.4511 23.0215C47.7921 23.6293 47.7921 24.3707 47.4511 24.9785L45.1132 29.1462C44.9497 29.4377 44.8618 29.7656 44.8577 30.0999L44.7985 34.8782C44.7899 35.575 44.4192 36.2171 43.82 36.5729L39.7115 39.0133C39.4241 39.1841 39.1841 39.4241 39.0133 39.7115L36.5729 43.82C36.2171 44.4192 35.575 44.7899 34.8782 44.7985L30.0999 44.8577C29.7656 44.8618 29.4377 44.9497 29.1462 45.1132L24.9785 47.4511C24.3707 47.7921 23.6293 47.7921 23.0215 47.4511L18.8538 45.1132C18.5623 44.9497 18.2344 44.8618 17.9001 44.8577L13.1218 44.7985C12.425 44.7899 11.7829 44.4192 11.4271 43.82L8.98666 39.7115C8.81594 39.4241 8.57591 39.1841 8.2885 39.0133L4.17997 36.5729C3.58083 36.2171 3.21013 35.575 3.2015 34.8782L3.14231 30.0999C3.13817 29.7656 3.05031 29.4377 2.88677 29.1462L0.548877 24.9785C0.207947 24.3707 0.207947 23.6293 0.548877 23.0215L2.88677 18.8538C3.05031 18.5623 3.13817 18.2344 3.14231 17.9001L3.2015 13.1218C3.21013 12.425 3.58083 11.7829 4.17997 11.4271L8.2885 8.98666C8.57591 8.81594 8.81594 8.57591 8.98666 8.2885L11.4271 4.17997C11.7829 3.58083 12.425 3.21013 13.1218 3.2015L17.9001 3.14231C18.2344 3.13817 18.5623 3.05031 18.8538 2.88677L23.0215 0.548877Z"
    fill="white"
  />
  <path
    d="M23.5383 10.4119C23.7091 10.0013 24.2909 10.0013 24.4617 10.4119L27.5358 17.8031C27.7518 18.3225 28.2403 18.6773 28.8009 18.7223L36.7803 19.362C37.2237 19.3975 37.4034 19.9508 37.0657 20.2401L30.9862 25.4478C30.559 25.8138 30.3725 26.3879 30.503 26.9351L32.3603 34.7216C32.4635 35.1542 31.9929 35.4962 31.6134 35.2643L24.7819 31.0917C24.3019 30.7985 23.6981 30.7985 23.2181 31.0917L16.3866 35.2643C16.0071 35.4962 15.5365 35.1542 15.6397 34.7216L17.497 26.9351C17.6275 26.3879 17.441 25.8138 17.0138 25.4478L10.9343 20.2401C10.5966 19.9508 10.7763 19.3975 11.2197 19.362L19.1991 18.7223C19.7597 18.6773 20.2482 18.3225 20.4642 17.8031L23.5383 10.4119Z"
    fill="#7C2D35"
    stroke="#7C2D35"
  />
</svg>
