<svg
  width="18"
  height="20"
  viewBox="0 0 18 20"
  fill="currentColor"
  xmlns="http://www.w3.org/2000/svg"
>
  <path
    fill-rule="evenodd"
    clip-rule="evenodd"
    d="M15.9688 4.5L15.1172 18.1248C15.0513 19.1788 14.1772 20 13.1211 20H4.8789C3.82278 20 2.94868 19.1788 2.8828 18.1248L2.03125 4.5H0.75C0.335786 4.5 0 4.16421 0 3.75C0 3.33579 0.335786 3 0.75 3H17.25C17.6642 3 18 3.33579 18 3.75C18 4.16421 17.6642 4.5 17.25 4.5H15.9688ZM14.3724 4.5H3.62759L4.34787 17.5551C4.37711 18.0852 4.81547 18.5 5.34635 18.5H12.6537C13.1845 18.5 13.6229 18.0852 13.6521 17.5551L14.3724 4.5ZM9 6C9.3866 6 9.7 6.3134 9.7 6.7V16.3C9.7 16.6866 9.3866 17 9 17C8.6134 17 8.3 16.6866 8.3 16.3V6.7C8.3 6.3134 8.6134 6 9 6ZM6 6C6.39164 6 6.714 6.30804 6.73179 6.69928L7.17048 16.3507C7.18606 16.6934 6.92089 16.9838 6.5782 16.9994C6.56881 16.9998 6.5594 17 6.55 17C6.18543 17 5.88445 16.715 5.8646 16.351L5.33813 6.69896C5.31819 6.33342 5.59835 6.02092 5.9639 6.00098C5.97592 6.00033 5.98796 6 6 6ZM12 6C12.3661 6 12.6629 6.29677 12.6629 6.66286C12.6629 6.6749 12.6625 6.68694 12.6619 6.69896L12.1381 16.301C12.1167 16.6931 11.7926 17 11.4 17C11.0339 17 10.7371 16.7032 10.7371 16.3371C10.7371 16.3251 10.7375 16.3131 10.7381 16.301L11.2619 6.69896C11.2833 6.30693 11.6074 6 12 6ZM7 0H11C12.1046 0 13 0.89543 13 2V3H5V2C5 0.89543 5.89543 0 7 0ZM7.1 1.5C6.76863 1.5 6.5 1.76863 6.5 2.1V3H11.5V2.1C11.5 1.76863 11.2314 1.5 10.9 1.5H7.1Z"
    fill="currentColor"
  />
</svg>
